# xmcd
#
# Track frame offsets:
#	150
#	21548
#	34862
#	60666
#	75124
#	94067
#	99674
#	113129
#	125645
#	143503
#	156044
#	172847
#	185186
#	198695
#	216597
#	235985
#
# Disc length: 3403 seconds
#
# Revision: 7
# Processed by: cddbd v1.5.2PL0 Copyright (c) Steve Scherf et al.
# Submitted via: CDmax 2.0
#
DISCID=e00d4910
DTITLE=Various Artist - Music Mania Summer Sampler Volume 9
DYEAR=2007
DGENRE=Rock
TTITLE0=Pigeon Detectives - Mislead
TTITLE1=1990s - See You At The Lights
TTITLE2=Interpol - Pioneer To The Falls
TTITLE3=Feist - So Sorry
TTITLE4=Bole 2 Harlem - Bole 2 Harlem
TTITLE5=Basia Bulat - Before I Knew
TTITLE6=Taken By Trees - Lost And Found
TTITLE7=Air Traffic - Never Even Told Me Her Name
TTITLE8=Gogol Bordello - Wonderlust King
TTITLE9=The Bird And The Bees - Again And Again
TTITLE10=Happy Mondays - Jellybean (Dirty Edit)
TTITLE11=Bat For Lashes - What's A Girl To Do
TTITLE12=The Films - Belt Loops
TTITLE13=Handsome Furs - What We Had
TTITLE14=Gossip - Standing In The Way Of Control
TTITLE15=Stateless - Prism #1
EXTD=
EXTT0=
EXTT1=
EXTT2=
EXTT3=
EXTT4=
EXTT5=
EXTT6=
EXTT7=
EXTT8=
EXTT9=
EXTT10=
EXTT11=
EXTT12=
EXTT13=
EXTT14=
EXTT15=
PLAYORDER=
